<svg xmlns="http://www.w3.org/2000/svg" width="215" height="185" fill="none" viewBox="0 0 215 185">
  <circle cx="92.5" cy="92.5" r="89" fill="#30EABD" stroke="#30EABD" stroke-width="7"/>
  <path fill="#D31F1F" d="M36.25 83h12.1v-7.25h-12.1v-13H27v2.4l7.05 6.35v4.25h-5.7V83h5.7v6.9c0 4.7 3.3 7.85 7.55 7.85 4.2 0 7.45-3.15 7.45-7.35V89h-12.8v-6Zm37.248-3c0-5.1-4.1-8.75-9.75-8.75s-9.75 3.65-9.75 8.75v9c0 5.1 4.3 8.75 9.75 8.75 5.7 0 9.75-3.65 9.75-8.75v-9Zm-2.2 0v9h-15.1v-9h15.1Zm23.293-8.75c-3.8 0-6.95 1.95-8.3 5.05V72h-9.15v2.4l6.95 6v18.85l-6.95 6.5V108h16.15v-2.25l-7-6.55v-6.7c1.35 3.15 4.5 5.25 8.3 5.25 5.05 0 9-3.75 9-8.75v-9.25c0-5-3.95-8.5-9-8.5ZM86.29 89v-9h15.1v9h-15.1ZM37.4 114.75h5.8l6.95-5.95v-2.05h-8.2c-3.6 0-6.75 2.7-6.75 7.75v5.25h-5.75V127h5.75v5.25l-6.95 6.5V141H44.4v-2.25l-7-6.55V127h8.55v-7.25H37.4v-5Zm34.312 9.75c0-5.35-2.2-8.5-8.15-8.5h-13.05v2.4l7.6 5.45h11.4v3.4h-10.05c-4.65 0-7.25 3-7.25 7.3 0 3.9 2.8 7.2 7.75 7.2 3.95 0 7.95-2.25 9.55-5.65v4.9h9.65v-2.4l-7.45-5.5v-8.6Zm-16.95 8.5c0-.95.65-1.9 1.3-2.5.85-.8 2.55-1.2 3.85-1.2h9.6v3.7h-14.75Zm40.21-17v2.25l5.55 6.2-3.65 8.1h-6.5l-3.65-8.1 5.65-6.2V116h-14.9v2.25l7.2 6.75 7.55 16.75h2.8l7.5-16.65 7.35-6.85V116h-14.9Zm31.726 17h-12.2v-3.75h17.3v-5.75c0-4.65-4.3-8.25-9.75-8.25s-9.75 3.6-9.75 8.25v9.7c0 4.6 3.65 7.8 8.3 7.8h13.7v-2.4l-7.6-5.6Zm2.9-5.95h-15.1v-3.55h15.1v3.55Zm33.158-8.65V116h-15.55c-4.9 0-7.4 3.05-7.4 6.7 0 4.5 2.55 6.8 6.85 6.8h10.75v3.65h-11.45l-7.6 5.45v2.4h11.8c5.75 0 9.45-3 9.45-6.95v-6.65h-12.8c-2.3 0-4.55-1.25-4.55-3.55h12.9l7.6-5.45Z"/>
</svg>
