<svg xmlns="http://www.w3.org/2000/svg" width="501" height="138" fill="none" viewBox="0 0 501 138">
  <path fill="#00F" d="M191.386 51.7c-2.4 0-4.517-.533-6.35-1.6-1.8-1.067-3.2-2.583-4.2-4.55-1-2-1.5-4.317-1.5-6.95 0-2.533.516-4.8 1.55-6.8 1.033-2 2.45-3.55 4.25-4.65 1.833-1.1 3.9-1.65 6.2-1.65 1.8 0 3.416.317 4.85.95 1.433.633 2.616 1.5 3.55 2.6a10.737 10.737 0 0 1 2.05 3.65l-4.4 1.5c-.467-1.367-1.2-2.483-2.2-3.35-1-.867-2.3-1.3-3.9-1.3-1.3 0-2.484.35-3.55 1.05-1.067.667-1.917 1.683-2.55 3.05-.634 1.367-.95 3.017-.95 4.95 0 1.967.3 3.633.9 5 .633 1.367 1.483 2.383 2.55 3.05 1.066.667 2.283 1 3.65 1 1.8 0 3.216-.5 4.25-1.5 1.066-1 1.85-2.283 2.35-3.85l4.45 1.55c-.867 2.4-2.25 4.317-4.15 5.75-1.867 1.4-4.15 2.1-6.85 2.1Zm16.461-.7V26.2h4.55c0 .533-.083 1.133-.25 1.8a14.222 14.222 0 0 1-.65 1.9c-.233.6-.517 1.2-.85 1.8-.3.567-.6 1.1-.9 1.6h2.7c.633-2.367 1.567-4.2 2.8-5.5 1.267-1.3 3.067-1.95 5.4-1.95.967 0 1.75.083 2.35.25v4.8c-1.067-.133-1.95-.2-2.65-.2-1.8 0-3.283.35-4.45 1.05-1.133.7-1.983 1.733-2.55 3.1-.533 1.367-.8 3.067-.8 5.1V51h-4.7Zm29.278.7c-2.3 0-4.317-.5-6.05-1.5-1.7-1.033-3.034-2.517-4-4.45-.934-1.967-1.4-4.317-1.4-7.05 0-2.633.483-4.95 1.45-6.95.966-2 2.3-3.533 4-4.6 1.733-1.1 3.666-1.65 5.8-1.65 2.433 0 4.516.633 6.25 1.9 1.766 1.233 3.05 2.95 3.85 5.15.833 2.167 1.1 4.583.8 7.25h-17.45c.066 1.9.416 3.45 1.05 4.65.666 1.167 1.5 2.017 2.5 2.55 1 .5 2.116.75 3.35.75 1.766 0 3.15-.483 4.15-1.45 1.033-.967 1.8-2.067 2.3-3.3l4.3 1.55c-.6 1.567-1.434 2.883-2.5 3.95a9.879 9.879 0 0 1-3.7 2.4c-1.4.533-2.967.8-4.7.8Zm5.95-15.65c0-1.433-.284-2.65-.85-3.65-.567-1.033-1.317-1.817-2.25-2.35-.9-.533-1.917-.8-3.05-.8-1.667 0-3.117.617-4.35 1.85-1.2 1.2-1.9 2.85-2.1 4.95h12.6Zm17.654 15.65c-2.433 0-4.367-.633-5.8-1.9-1.4-1.267-2.1-3-2.1-5.2 0-2.167.7-3.933 2.1-5.3 1.433-1.4 3.3-2.433 5.6-3.1 2.3-.7 4.933-1.167 7.9-1.4v-.75c0-.967-.183-1.783-.55-2.45-.367-.7-.933-1.233-1.7-1.6-.767-.367-1.75-.55-2.95-.55-1.933 0-3.4.433-4.4 1.3a7.498 7.498 0 0 0-2.1 3.15l-4.4-1.45c.267-1.2.85-2.317 1.75-3.35.933-1.067 2.167-1.933 3.7-2.6 1.567-.667 3.383-1 5.45-1 2.2 0 4.033.35 5.5 1.05 1.467.7 2.567 1.7 3.3 3 .733 1.3 1.1 2.85 1.1 4.65v11.35c0 .567.1.95.3 1.15.2.2.583.3 1.15.3h2.55v4h-2.05c-1.267 0-2.25-.15-2.95-.45-.667-.333-1.133-.867-1.4-1.6-.267-.767-.4-1.817-.4-3.15h-1.9c-.467 1.733-1.35 3.15-2.65 4.25-1.3 1.1-2.983 1.65-5.05 1.65Zm1.35-3.85c1.1 0 2.133-.25 3.1-.75.967-.533 1.75-1.333 2.35-2.4.6-1.067.9-2.383.9-3.95V38.2c-3.3.333-5.917.967-7.85 1.9-1.933.9-2.9 2.267-2.9 4.1 0 1.133.367 2.033 1.1 2.7.767.633 1.867.95 3.3.95ZM289.886 51c-1.367 0-2.517-.217-3.45-.65-.934-.467-1.634-1.15-2.1-2.05-.467-.9-.7-2.033-.7-3.4V30.1h-5.65v-3.9h5.65v-7.75h4.7v7.75h6.7v3.9h-6.7v14.4c0 .833.2 1.45.6 1.85.4.4 1.016.6 1.85.6h5.2V51h-6.1Zm20.774.7c-2.3 0-4.317-.5-6.05-1.5-1.7-1.033-3.033-2.517-4-4.45-.933-1.967-1.4-4.317-1.4-7.05 0-2.633.483-4.95 1.45-6.95s2.3-3.533 4-4.6c1.733-1.1 3.667-1.65 5.8-1.65 2.433 0 4.517.633 6.25 1.9 1.767 1.233 3.05 2.95 3.85 5.15.833 2.167 1.1 4.583.8 7.25h-17.45c.067 1.9.417 3.45 1.05 4.65.667 1.167 1.5 2.017 2.5 2.55 1 .5 2.117.75 3.35.75 1.767 0 3.15-.483 4.15-1.45 1.033-.967 1.8-2.067 2.3-3.3l4.3 1.55c-.6 1.567-1.433 2.883-2.5 3.95a9.87 9.87 0 0 1-3.7 2.4c-1.4.533-2.967.8-4.7.8Zm5.95-15.65c0-1.433-.283-2.65-.85-3.65-.567-1.033-1.317-1.817-2.25-2.35-.9-.533-1.917-.8-3.05-.8-1.667 0-3.117.617-4.35 1.85-1.2 1.2-1.9 2.85-2.1 4.95h12.6Z"/>
  <path stroke="#D31F1F" stroke-width="7" d="M163.5 3.5h179v131h-179z"/>
</svg>
