<svg xmlns="http://www.w3.org/2000/svg" width="623" height="290" fill="none" viewBox="0 0 623 290">
  <path fill="#FFED4C" fill-opacity=".43" stroke="#2400FF" stroke-width="7" d="M3.5 69C3.5 32.825 32.825 3.5 69 3.5h485c36.175 0 65.5 29.325 65.5 65.5v152c0 36.175-29.325 65.5-65.5 65.5H69c-36.175 0-65.5-29.325-65.5-65.5V69Z"/>
  <path fill="#30EABD" d="m84.453 213 29.6-140h39.4l-3.8 18.2a94.443 94.443 0 0 1-4.4 14.8c-1.867 4.667-4 9.133-6.4 13.4-2 3.333-4 6.4-6 9.2-1.867 2.667-3.533 4.867-5 6.6h16c2.133-5.2 4.667-9.733 7.6-13.6 3.067-3.867 6.6-6.867 10.6-9 4-2.267 8.6-3.4 13.8-3.4 6.533 0 12.133 1.6 16.8 4.8 4.8 3.2 8.133 8 10 14.4 2 6.267 2.067 13.867.2 22.8l-13 61.8h-40.6l12.6-58.4c.933-4.933.6-8.733-1-11.4-1.6-2.8-4.333-4.2-8.2-4.2-2.933 0-5.467.867-7.6 2.6s-3.933 4.133-5.4 7.2c-1.333 2.933-2.4 6.4-3.2 10.4l-11.4 53.8h-40.6Zm155.024 3.4c-8.134 0-14.867-2.4-20.2-7.2-5.334-4.8-8-11.267-8-19.4 0-8 2.666-14.933 8-20.8 5.466-6 13.6-10.733 24.4-14.2 10.933-3.467 24.333-5.533 40.2-6.2l.8-3.4c.4-2.267.266-4.267-.4-6-.667-1.733-1.934-3.067-3.8-4-1.867-.933-4.2-1.4-7-1.4-4.534 0-8.2 1.133-11 3.4-2.667 2.267-4.667 5.4-6 9.4l-39-6c1.466-5.6 4.533-10.8 9.2-15.6 4.666-4.8 11.066-8.667 19.2-11.6 8.133-2.933 17.8-4.4 29-4.4 11.333 0 20.733 1.733 28.2 5.2 7.6 3.467 12.933 8.6 16 15.4 3.066 6.667 3.533 14.733 1.4 24.2l-5.2 25.4c-.534 2-.534 3.467 0 4.4.666.933 1.933 1.4 3.8 1.4h7.6l-5.8 28h-17.2c-5.734 0-10-.8-12.8-2.4-2.667-1.6-4.267-3.867-4.8-6.8-.534-3.067-.334-6.8.6-11.2h-11.8c-3.334 7.467-7.8 13.333-13.4 17.6-5.467 4.133-12.8 6.2-22 6.2Zm20.4-25.2c2.666 0 5.266-.667 7.8-2 2.666-1.333 4.933-3.4 6.8-6.2 2-2.8 3.466-6.2 4.4-10.2l1.2-5.6c-8.8.4-15.867 1.933-21.2 4.6-5.2 2.667-7.8 6.467-7.8 11.4 0 2.4.733 4.333 2.2 5.8 1.466 1.467 3.666 2.2 6.6 2.2Zm71.451 21.8 29.8-140h39.6l-29.6 140h-39.8Zm90.18 3.4c-6.134 0-11.4-1.4-15.8-4.2-4.267-2.933-7.267-7.333-9-13.2-1.6-5.867-1.534-13.133.2-21.8l13.8-64.8h40.6l-12.6 59.2c-.934 4.667-.667 8.333.8 11 1.6 2.533 4.2 3.8 7.8 3.8 4.4 0 7.933-1.8 10.6-5.4 2.666-3.6 4.6-8.4 5.8-14.4l11.6-54.2h40l-21.2 100.6h-35.2c.8-3.067 2.2-6.533 4.2-10.4s4.6-7.667 7.8-11.4h-15.6c-4.267 8.133-9.134 14.4-14.6 18.8-5.334 4.267-11.734 6.4-19.2 6.4Z"/>
  <path fill="#2E1F67" d="M264.246 224.875c0-15.925-12.95-28-31.5-28-13.3 0-24.325 6.825-29.05 16.8v-46.55h-27.65v28h19.95V259h-19.95v28h47.6v-28h-19.95v-31.5h52.85V259h-19.95v28h47.6v-28h-19.95v-34.125Zm101.499 4.375c0-18.725-7.7-29.75-28.525-29.75h-37.8v27.475h58.625v11.9H322.87c-16.275 0-25.375 10.5-25.375 25.55 0 13.65 9.8 25.2 27.125 25.2 13.825 0 27.825-7.875 33.425-19.775V287h27.65v-28h-19.95v-29.75ZM306.42 259c0-3.325 2.275-6.65 4.55-8.75 2.975-2.8 8.925-4.2 13.475-4.2h33.6V259H306.42Zm116.031-91.875h-27.65v28h19.95V259h-20.125v28h47.6v-28h-19.775v-91.875ZM525.552 227.5c0-17.85-14.35-30.625-34.125-30.625s-34.125 12.775-34.125 30.625V259c0 17.85 15.05 30.625 34.125 30.625 19.95 0 34.125-12.775 34.125-30.625v-31.5Zm-7.7 0V259h-52.85v-31.5h52.85Z"/>
</svg>
