<svg xmlns="http://www.w3.org/2000/svg" width="603" height="297" fill="none" viewBox="0 0 603 297">
  <path fill="#FCB1FE" stroke="#fff" stroke-width="19" d="m497.087 21.865 62.617 66.238a39.5 39.5 0 0 1 10.796 27.135V248c0 21.815-17.685 39.5-39.5 39.5H180.423a39.498 39.498 0 0 1-28.704-12.365L20.296 136.112A39.499 39.499 0 0 1 9.5 108.977V49C9.5 27.185 27.185 9.5 49 9.5h419.383a39.5 39.5 0 0 1 28.704 12.365Z"/>
  <path fill="#EF2323" d="M120.405 99.7c2.2 0 3.7-1.3 3.9-3.5 1.6-13.2 1.6-26.5 0-39.7-.2-2.2-1.7-3.5-3.9-3.5h-41.3c-2.2 0-3.5 1.3-3.5 3.5v62c0 2.6 1.9 4.5 4.5 4.5 2.7 0 4.5-1.9 4.5-4.5v-15.3c0-2.2 1.3-3.5 3.5-3.5h32.3Zm-35.8-35.6c0-2.2 1.3-3.5 3.5-3.5h23.9c2.2 0 3.7 1.3 4 3.5 1 8.2 1 16.3 0 24.5-.3 2.2-1.8 3.5-4 3.5h-23.9c-2.2 0-3.5-1.3-3.5-3.5V64.1Zm92.265 44.7c2.2 0 3.5 1.3 3.5 3.5v6.4c0 2.5 1.8 4.3 4.1 4.3 2.5 0 4.2-1.8 4.2-4.3v-17.2c0-1.9-.6-4.1-1.7-5.7l-16.5-25.3c-1.2-1.8-1.9-4.2-1.9-6.4v-6.9c0-2.6-1.9-4.5-4.5-4.5-2.7 0-4.5 1.9-4.5 4.5v6.9c0 2.2-.7 4.6-1.9 6.4l-16.3 25c-1.2 1.8-1.9 4.2-1.9 6.4v16.8c0 2.5 1.8 4.3 4.1 4.3 2.5 0 4.2-1.8 4.2-4.3v-6.4c0-2.2 1.3-3.5 3.5-3.5h25.6Zm-14.7-30.2c1.2-1.8 2.6-1.8 3.8 0l12.6 19.3c1.2 1.8.6 2.9-1.6 2.9h-25.8c-2.2 0-2.8-1.1-1.6-2.9l12.6-19.3Zm87.565 44.4c2.2 0 3.5-1.3 3.5-3.5v-16.2c0-2.6-1.9-4.5-4.5-4.5-2.7 0-4.5 1.9-4.5 4.5v8.6c0 2.2-1.3 3.5-3.5 3.5h-24.7c-2.2 0-3.5-1.3-3.5-3.5V57.5c0-2.6-1.9-4.5-4.5-4.5-2.7 0-4.5 1.9-4.5 4.5v62c0 2.2 1.3 3.5 3.5 3.5h42.7Zm63.565 0c2.2 0 3.5-1.3 3.5-3.5v-16.2c0-2.6-1.9-4.5-4.5-4.5s-4.5 1.9-4.5 4.5v8.6c0 2.2-1.3 3.5-3.5 3.5h-23.8c-2.2 0-3.5-1.3-3.5-3.5V94.6c0-2.2 1.3-3.5 3.5-3.5h4.3c1.8 0 2.8 1 2.8 2.8v1.4c0 2.2 1.9 3.8 4.5 3.8s4.5-1.6 4.5-3.8V79.7c0-2.2-1.9-3.8-4.5-3.8s-4.5 1.6-4.5 3.8v1.4c0 1.8-1 2.8-2.8 2.8h-4.3c-2.2 0-3.5-1.3-3.5-3.5V64.1c0-2.2 1.3-3.5 3.5-3.5h23.8c2.2 0 3.5 1.3 3.5 3.5v7.2c0 2.6 1.9 4.5 4.5 4.5s4.5-1.9 4.5-4.5V56.5c0-2.2-1.3-3.5-3.5-3.5h-41.8c-2.2 0-3.5 1.3-3.5 3.5v63c0 2.2 1.3 3.5 3.5 3.5h41.8Zm34.665-62.4c2.2 0 3.5 1.3 3.5 3.5v54.4c0 2.6 1.9 4.5 4.5 4.5 2.7 0 4.5-1.9 4.5-4.5V64.1c0-2.2 1.3-3.5 3.5-3.5h5.6c2.2 0 3.5 1.3 3.5 3.5v8c0 2.4 1.8 4.2 4.2 4.2 2.6 0 4.3-1.8 4.3-4.2V56.5c0-2.2-1.3-3.5-3.5-3.5h-44.2c-2.2 0-3.5 1.3-3.5 3.5v15.6c0 2.4 1.8 4.2 4.2 4.2 2.6 0 4.3-1.8 4.3-4.2v-8c0-2.2 1.3-3.5 3.5-3.5h5.6Zm84.765 48.2c2.2 0 3.5 1.3 3.5 3.5v6.4c0 2.5 1.8 4.3 4.1 4.3 2.5 0 4.2-1.8 4.2-4.3v-17.2c0-1.9-.6-4.1-1.7-5.7l-16.5-25.3c-1.2-1.8-1.9-4.2-1.9-6.4v-6.9c0-2.6-1.9-4.5-4.5-4.5-2.7 0-4.5 1.9-4.5 4.5v6.9c0 2.2-.7 4.6-1.9 6.4l-16.3 25c-1.2 1.8-1.9 4.2-1.9 6.4v16.8c0 2.5 1.8 4.3 4.1 4.3 2.5 0 4.2-1.8 4.2-4.3v-6.4c0-2.2 1.3-3.5 3.5-3.5h25.6Zm-14.7-30.2c1.2-1.8 2.6-1.8 3.8 0l12.6 19.3c1.2 1.8.6 2.9-1.6 2.9h-25.8c-2.2 0-2.8-1.1-1.6-2.9l12.6-19.3Z"/>
  <g filter="url(#a)">
    <path fill="#62D783" d="M227.8 160.08c-3.173 0-5.723-.963-7.65-2.89-1.927-2.04-2.833-4.647-2.72-7.82.113-3.4 1.247-6.177 3.4-8.33 2.267-2.153 5.043-3.117 8.33-2.89 3.287.113 5.893 1.19 7.82 3.23 1.927 2.04 2.833 4.647 2.72 7.82-.113 3.4-1.303 6.12-3.57 8.16-2.267 1.927-5.043 2.833-8.33 2.72Zm-7.99 80.41c-3.967-.113-6.46-1.643-7.48-4.59-1.02-2.947-1.417-7.707-1.19-14.28.227-4.873.68-10.2 1.36-15.98.793-5.893 1.7-11.39 2.72-16.49 1.02-5.1 1.87-9.01 2.55-11.73 1.247-4.193 2.55-6.743 3.91-7.65 1.36-1.02 3.06-1.473 5.1-1.36 1.927.113 3.173.51 3.74 1.19.68.567 1.02 1.53 1.02 2.89 0 .34-.057.85-.17 1.53 0 .68-.057 1.53-.17 2.55-.227 2.153-.453 4.93-.68 8.33a931.844 931.844 0 0 0-.68 10.88c-.34 9.633-.17 16.83.51 21.59.793 4.76 1.417 8.273 1.87 10.54.227.793.34 1.473.34 2.04.113.567.17 1.133.17 1.7 0 1.7-1.133 3.627-3.4 5.78-2.153 2.153-5.327 3.173-9.52 3.06Zm45.188 13.43c-3.4 0-6.063-.963-7.99-2.89-1.927-1.813-2.89-5.157-2.89-10.03 0-3.287.34-7.423 1.02-12.41.793-4.987 1.7-10.257 2.72-15.81a363.62 363.62 0 0 0 2.21-13.94 224.652 224.652 0 0 0 1.87-14.28c.567-4.76.85-9.01.85-12.75 0-4.307-.51-8.047-1.53-11.22-.907-3.173-2.833-5.213-5.78-6.12a19.233 19.233 0 0 1-3.06-1.53c-.907-.567-1.36-1.473-1.36-2.72 0-1.587.623-3.343 1.87-5.27 1.247-1.927 3.003-3.57 5.27-4.93 2.38-1.473 5.043-2.21 7.99-2.21 3.853 0 6.517 1.36 7.99 4.08 1.473 2.607 2.21 6.063 2.21 10.37 0 1.247-.057 2.55-.17 3.91a52.643 52.643 0 0 1-.51 3.91c3.287-6.347 7.593-11.673 12.92-15.98 5.44-4.42 11.56-6.63 18.36-6.63 6.8 0 12.127 2.323 15.98 6.97 3.967 4.533 5.95 10.71 5.95 18.53 0 5.78-.907 11.447-2.72 17-1.813 5.44-4.363 10.37-7.65 14.79s-7.253 7.933-11.9 10.54c-4.533 2.607-9.633 3.91-15.3 3.91-4.08 0-7.65-.737-10.71-2.21-3.06-1.36-5.723-3.173-7.99-5.44-.453 2.947-.907 6.517-1.36 10.71-.34 4.193-.51 8.103-.51 11.73 0 4.193.453 7.48 1.36 9.86 1.02 2.38 2.947 4.193 5.78 5.44 1.247.567 1.87 1.473 1.87 2.72 0 .907-.453 2.323-1.36 4.25s-2.437 3.683-4.59 5.27c-2.04 1.587-4.987 2.38-8.84 2.38Zm30.26-63.07c6.46 0 11.447-2.04 14.96-6.12 3.513-4.08 5.27-8.783 5.27-14.11 0-4.647-1.247-8.217-3.74-10.71-2.493-2.607-5.837-3.91-10.03-3.91-4.307 0-8.103 1.303-11.39 3.91-3.287 2.493-6.12 5.78-8.5 9.86-2.267 4.08-4.137 8.443-5.61 13.09 5.667 5.327 12.013 7.99 19.04 7.99Zm73.546 18.36c-7.82 0-14.11-2.097-18.87-6.29-4.646-4.307-6.97-10.597-6.97-18.87 0-3.853.51-7.593 1.53-11.22a51.41 51.41 0 0 1 4.42-10.2c-1.813 1.133-3.173 1.7-4.08 1.7-1.36 0-2.323-.737-2.89-2.21-.453-1.587-.68-3.117-.68-4.59 0-2.607.51-4.647 1.53-6.12 1.134-1.587 2.21-2.777 3.23-3.57 2.38-2.04 6.12-4.25 11.22-6.63 5.1-2.493 11.22-3.74 18.36-3.74 9.747 0 17.284 2.72 22.61 8.16 5.44 5.44 8.16 13.033 8.16 22.78 0 7.593-1.586 14.507-4.76 20.74-3.173 6.12-7.593 10.993-13.26 14.62-5.553 3.627-12.07 5.44-19.55 5.44Zm5.27-17.34c5.667 0 10.427-1.757 14.28-5.27 3.967-3.627 5.95-8.387 5.95-14.28 0-6.12-1.983-10.483-5.95-13.09-3.966-2.607-8.556-3.91-13.77-3.91-2.38 0-4.533.227-6.46.68a38.155 38.155 0 0 0-5.44 1.7c-1.586 2.267-3.003 4.817-4.25 7.65-1.246 2.833-1.87 5.95-1.87 9.35 0 5.667 1.7 9.973 5.1 12.92 3.4 2.833 7.537 4.25 12.41 4.25Zm55.114 62.05c-3.4 0-6.064-.963-7.99-2.89-1.927-1.813-2.89-5.157-2.89-10.03 0-3.287.34-7.423 1.02-12.41.793-4.987 1.7-10.257 2.72-15.81a363.62 363.62 0 0 0 2.21-13.94 225.378 225.378 0 0 0 1.87-14.28c.566-4.76.85-9.01.85-12.75 0-4.307-.51-8.047-1.53-11.22-.907-3.173-2.834-5.213-5.78-6.12a19.148 19.148 0 0 1-3.06-1.53c-.907-.567-1.36-1.473-1.36-2.72 0-1.587.623-3.343 1.87-5.27 1.246-1.927 3.003-3.57 5.27-4.93 2.38-1.473 5.043-2.21 7.99-2.21 3.853 0 6.516 1.36 7.99 4.08 1.473 2.607 2.21 6.063 2.21 10.37 0 1.247-.057 2.55-.17 3.91a53.725 53.725 0 0 1-.51 3.91c3.286-6.347 7.593-11.673 12.92-15.98 5.44-4.42 11.56-6.63 18.36-6.63 6.8 0 12.126 2.323 15.98 6.97 3.966 4.533 5.95 10.71 5.95 18.53 0 5.78-.907 11.447-2.72 17-1.814 5.44-4.364 10.37-7.65 14.79-3.287 4.42-7.254 7.933-11.9 10.54-4.534 2.607-9.634 3.91-15.3 3.91-4.08 0-7.65-.737-10.71-2.21-3.06-1.36-5.724-3.173-7.99-5.44-.454 2.947-.907 6.517-1.36 10.71-.34 4.193-.51 8.103-.51 11.73 0 4.193.453 7.48 1.36 9.86 1.02 2.38 2.946 4.193 5.78 5.44 1.246.567 1.87 1.473 1.87 2.72 0 .907-.454 2.323-1.36 4.25-.907 1.927-2.437 3.683-4.59 5.27-2.04 1.587-4.987 2.38-8.84 2.38Zm30.26-63.07c6.46 0 11.446-2.04 14.96-6.12 3.513-4.08 5.27-8.783 5.27-14.11 0-4.647-1.247-8.217-3.74-10.71-2.494-2.607-5.837-3.91-10.03-3.91-4.307 0-8.104 1.303-11.39 3.91-3.287 2.493-6.12 5.78-8.5 9.86-2.267 4.08-4.137 8.443-5.61 13.09 5.666 5.327 12.013 7.99 19.04 7.99Zm62.326-13.09c-1.927 0-3.23-.283-3.91-.85-.68-.68-1.02-1.7-1.02-3.06v-1.36c0-.68.056-1.587.17-2.72.226-2.267.396-5.043.51-8.33.113-3.287.17-6.857.17-10.71 0-9.633-.454-16.83-1.36-21.59-.907-4.76-1.644-8.217-2.21-10.37-.34-1.927-.51-3.173-.51-3.74 0-1.813 1.02-3.797 3.06-5.95 2.153-2.267 5.326-3.4 9.52-3.4 3.966 0 6.46 1.473 7.48 4.42 1.133 2.833 1.7 7.48 1.7 13.94 0 4.873-.284 10.257-.85 16.15-.567 5.893-1.247 11.39-2.04 16.49-.794 5.1-1.53 9.01-2.21 11.73-1.02 4.193-2.21 6.8-3.57 7.82-1.247 1.02-2.89 1.53-4.93 1.53Zm-1.53 30.6c-3.174 0-5.78-1.02-7.82-3.06-1.927-2.04-2.89-4.647-2.89-7.82 0-3.287 1.076-6.007 3.23-8.16 2.153-2.153 4.93-3.23 8.33-3.23 3.173 0 5.723.963 7.65 2.89 1.926 1.927 2.89 4.477 2.89 7.65 0 3.4-1.077 6.233-3.23 8.5-2.154 2.153-4.874 3.23-8.16 3.23Z"/>
  </g>
  <defs>
    <filter id="a" width="332.574" height="156.24" x="210.8" y="104.68" color-interpolation-filters="sRGB" filterUnits="userSpaceOnUse">
      <feFlood flood-opacity="0" result="BackgroundImageFix"/>
      <feColorMatrix in="SourceAlpha" result="hardAlpha" values="0 0 0 0 0 0 0 0 0 0 0 0 0 0 0 0 0 0 127 0"/>
      <feOffset dx="4" dy="3"/>
      <feGaussianBlur stdDeviation="2"/>
      <feComposite in2="hardAlpha" operator="out"/>
      <feColorMatrix values="0 0 0 0 0 0 0 0 0 0 0 0 0 0 0 0 0 0 0.81 0"/>
      <feBlend in2="BackgroundImageFix" result="effect1_dropShadow_1253_5"/>
      <feBlend in="SourceGraphic" in2="effect1_dropShadow_1253_5" result="shape"/>
    </filter>
  </defs>
</svg>
